<svg width="1200" height="700" viewBox="0 0 1200 700" fill="none" xmlns="http://www.w3.org/2000/svg">
  <rect x="40" y="80" width="1120" height="560" rx="36" fill="#e8f4ff"/>
  <rect x="70" y="110" width="1060" height="500" rx="24" fill="#0f3f70" fill-opacity="0.95"/>
  <rect x="100" y="150" width="720" height="360" rx="18" fill="#ffffff" fill-opacity="0.08" stroke="#7cc4ff" stroke-opacity="0.3" stroke-width="4"/>
  <rect x="840" y="150" width="260" height="360" rx="18" fill="#ffffff" fill-opacity="0.1" stroke="#429cff" stroke-opacity="0.35" stroke-width="4"/>
  <rect x="130" y="180" width="300" height="24" rx="8" fill="#7cc4ff" fill-opacity="0.8"/>
  <rect x="130" y="220" width="420" height="18" rx="8" fill="#ffffff" fill-opacity="0.9"/>
  <rect x="130" y="260" width="360" height="12" rx="6" fill="#ffffff" fill-opacity="0.65"/>
  <rect x="130" y="290" width="260" height="12" rx="6" fill="#ffffff" fill-opacity="0.65"/>
  <rect x="860" y="180" width="180" height="16" rx="8" fill="#7cc4ff" fill-opacity="0.8"/>
  <rect x="860" y="210" width="220" height="12" rx="6" fill="#ffffff" fill-opacity="0.7"/>
  <rect x="860" y="240" width="200" height="12" rx="6" fill="#ffffff" fill-opacity="0.7"/>
  <rect x="860" y="270" width="200" height="12" rx="6" fill="#ffffff" fill-opacity="0.6"/>
  <rect x="100" y="640" width="1000" height="24" rx="12" fill="#0f3f70" fill-opacity="0.9"/>
</svg>
